<svg width="26" height="27" viewBox="0 0 26 27" fill="none" xmlns="http://www.w3.org/2000/svg">
<path d="M19.4353 6.50702H18.6153L16.9153 1.82702C16.7745 1.44112 16.5189 1.10767 16.1827 0.871635C15.8465 0.635601 15.446 0.508341 15.0353 0.507019H13.4353C12.8853 0.507019 12.4353 0.957019 12.4353 1.50702C12.4353 2.05702 12.8853 2.50702 13.4353 2.50702H15.0353L16.4953 6.50702H11.6853L11.3253 5.50702H11.4153C11.9653 5.50702 12.4153 5.05702 12.4153 4.50702C12.4153 3.95702 11.9653 3.50702 11.4153 3.50702H8.43529C7.88529 3.50702 7.43529 3.95702 7.43529 4.50702C7.43529 5.05702 7.88529 5.50702 8.43529 5.50702H9.18529L11.0053 10.507H10.3353C9.89529 8.27702 8.02529 6.62702 5.68529 6.51702C2.88529 6.37702 0.435287 8.70702 0.435287 11.507C0.435287 14.307 2.63529 16.507 5.43529 16.507C7.89529 16.507 9.88529 14.817 10.3353 12.507H14.5353C14.9753 14.737 16.8453 16.387 19.1853 16.497C21.9853 16.627 24.4353 14.307 24.4353 11.497C24.4353 8.70702 22.2353 6.50702 19.4353 6.50702ZM6.43529 12.507H8.25529C7.83529 13.737 6.65529 14.587 5.23529 14.497C3.74529 14.407 2.50529 13.147 2.43529 11.647C2.36529 9.89702 3.70529 8.50702 5.43529 8.50702C6.76529 8.50702 7.85529 9.33702 8.25529 10.507H6.43529C5.88529 10.507 5.43529 10.957 5.43529 11.507C5.43529 12.057 5.88529 12.507 6.43529 12.507ZM14.5353 10.507H13.1353L12.4053 8.50702H15.4353C14.9953 9.08702 14.6753 9.75702 14.5353 10.507ZM19.3153 14.507C17.7753 14.447 16.4753 13.137 16.4353 11.587C16.4153 10.627 16.8253 9.78702 17.4853 9.22702L18.1053 10.927C18.2953 11.447 18.8653 11.717 19.3853 11.527C19.9053 11.337 20.1753 10.767 19.9853 10.247L19.3553 8.51702L19.3653 8.50702C19.7662 8.49335 20.1658 8.56107 20.5398 8.7061C20.9138 8.85112 21.2546 9.07045 21.5415 9.35083C21.8284 9.6312 22.0556 9.96682 22.2092 10.3374C22.3628 10.708 22.4397 11.1059 22.4353 11.507C22.4353 13.227 21.0553 14.567 19.3153 14.507ZM25.6006 19.421L0.0181885 19.8854L14.1483 26.0227L25.6006 19.421Z" fill="url(#paint0_linear_49_270)"/>
<defs>
<linearGradient id="paint0_linear_49_270" x1="13.2715" y1="1.11625" x2="13.2715" y2="23.1163" gradientUnits="userSpaceOnUse">
<stop stop-color="#FFC700"/>
<stop offset="1" stop-color="#FDDC68"/>
</linearGradient>
</defs>
</svg>
